<svg width="24" height="24" viewBox="0 0 24 24" fill="none" xmlns="http://www.w3.org/2000/svg">
<path fill-rule="evenodd" clip-rule="evenodd" d="M19.0192 17.0101V12.8663H20.6304V17.0101C20.6303 17.0834 20.6011 17.1537 20.5493 17.2055C20.4974 17.2574 20.4272 17.2865 20.3539 17.2867H19.2958C19.2225 17.2865 19.1522 17.2574 19.1004 17.2055C19.0486 17.1537 19.0194 17.0834 19.0192 17.0101ZM2.27649 11.255H21.7234C21.7967 11.2552 21.867 11.2843 21.9188 11.3362C21.9706 11.388 21.9998 11.4583 21.9999 11.5316V12.5897C21.9998 12.663 21.9706 12.7333 21.9188 12.7851C21.8669 12.837 21.7967 12.8661 21.7234 12.8663H2.27649C2.20319 12.8661 2.13293 12.837 2.0811 12.7851C2.02927 12.7333 2.00009 12.663 1.99994 12.5897V11.5316C2.00007 11.4583 2.02925 11.388 2.08109 11.3362C2.13292 11.2843 2.20319 11.2552 2.27649 11.255ZM2.96124 9.79358H21.0386C21.1119 9.79345 21.1822 9.76427 21.234 9.71243C21.2859 9.6606 21.3151 9.59033 21.3152 9.51703V6.98981C21.3151 6.91651 21.2859 6.84624 21.234 6.7944C21.1822 6.74257 21.1119 6.71339 21.0386 6.71326H2.96124C2.88794 6.71339 2.81767 6.74257 2.76584 6.7944C2.714 6.84624 2.68482 6.91651 2.68469 6.98981V9.51697C2.68482 9.59028 2.714 9.66054 2.76584 9.71238C2.81767 9.76421 2.88794 9.79345 2.96124 9.79358ZM3.36944 17.0101V12.8663H4.98043V17.0101C4.98028 17.0834 4.9511 17.1537 4.89926 17.2055C4.84743 17.2574 4.77717 17.2865 4.70387 17.2867H3.64599C3.57269 17.2865 3.50243 17.2574 3.4506 17.2055C3.39877 17.1537 3.36958 17.0834 3.36944 17.0101Z" fill="#8D8E92"/>
</svg>
