<svg width="14" height="14" viewBox="0 0 14 14" fill="none" xmlns="http://www.w3.org/2000/svg">
<path d="M12.6284 11.5938C11.7955 10.1539 10.512 9.12135 9.01414 8.6319C9.75506 8.19082 10.3307 7.51872 10.6527 6.71882C10.9747 5.91891 11.0252 5.03543 10.7964 4.20405C10.5677 3.37266 10.0724 2.63935 9.38654 2.11672C8.70071 1.59408 7.86227 1.31104 7 1.31104C6.13772 1.31104 5.29928 1.59408 4.61345 2.11672C3.92761 2.63935 3.43229 3.37266 3.20356 4.20405C2.97482 5.03543 3.02532 5.91891 3.3473 6.71882C3.66928 7.51872 4.24493 8.19082 4.98585 8.6319C3.48796 9.1208 2.20445 10.1533 1.37156 11.5938C1.34101 11.6436 1.32076 11.699 1.31198 11.7568C1.3032 11.8145 1.30607 11.8734 1.32044 11.9301C1.3348 11.9867 1.36037 12.0399 1.39562 12.0865C1.43087 12.1331 1.47509 12.1721 1.52568 12.2013C1.57627 12.2306 1.6322 12.2494 1.69017 12.2566C1.74814 12.2639 1.80698 12.2594 1.86321 12.2436C1.91944 12.2277 1.97193 12.2008 2.01757 12.1643C2.06322 12.1279 2.1011 12.0826 2.12898 12.0313C3.15929 10.2506 4.98039 9.18752 7 9.18752C9.0196 9.18752 10.8407 10.2506 11.871 12.0313C11.8989 12.0826 11.9368 12.1279 11.9824 12.1643C12.0281 12.2008 12.0805 12.2277 12.1368 12.2436C12.193 12.2594 12.2518 12.2639 12.3098 12.2566C12.3678 12.2494 12.4237 12.2306 12.4743 12.2013C12.5249 12.1721 12.5691 12.1331 12.6044 12.0865C12.6396 12.0399 12.6652 11.9867 12.6796 11.9301C12.6939 11.8734 12.6968 11.8145 12.688 11.7568C12.6792 11.699 12.659 11.6436 12.6284 11.5938ZM3.9375 5.25002C3.9375 4.64432 4.11711 4.05221 4.45362 3.54859C4.79013 3.04496 5.26843 2.65244 5.82803 2.42064C6.38763 2.18885 7.00339 2.1282 7.59746 2.24637C8.19153 2.36454 8.73721 2.65621 9.16551 3.08451C9.59381 3.51281 9.88548 4.05849 10.0036 4.65256C10.1218 5.24663 10.0612 5.86239 9.82938 6.42199C9.59758 6.98159 9.20505 7.45989 8.70143 7.7964C8.1978 8.13291 7.6057 8.31252 7 8.31252C6.18804 8.31165 5.40958 7.98872 4.83544 7.41458C4.2613 6.84044 3.93836 6.06198 3.9375 5.25002Z" fill="white"/>
</svg>
